Coordinates
version=1
nRows=11
nColumns=40
inDegrees=yes

Units are S.I. units (second, meters, Newtons, ...)
Angles are in degrees.

endheader
time	pelvis_tilt	pelvis_list	pelvis_rotation	pelvis_tx	pelvis_ty	pelvis_tz	hip_flexion_r	hip_adduction_r	hip_rotation_r	knee_angle_r	knee_angle_r_beta	ankle_angle_r	subtalar_angle_r	mtp_angle_r	hip_flexion_l	hip_adduction_l	hip_rotation_l	knee_angle_l	knee_angle_l_beta	ankle_angle_l	subtalar_angle_l	mtp_angle_l	lumbar_extension	lumbar_bending	lumbar_rotation	arm_flex_r	arm_add_r	arm_rot_r	elbow_flex_r	pro_sup_r	wrist_flex_r	wrist_dev_r	arm_flex_l	arm_add_l	arm_rot_l	elbow_flex_l	pro_sup_l	wrist_flex_l	wrist_dev_l
     36.54000000	     -3.98498081	     -4.51567785	     -2.33145200	      0.89073881	      0.93483260	      0.41373499	     31.63660146	     -5.23312988	     -6.78848441	     60.64734082	     60.64734082	      3.89782857	    -16.69629819	      3.74030504	     14.63359156	     -4.19688039	     -9.84408502	     19.42273763	     19.42273763	     11.44436335	     -6.57359082	     -3.33940441	    -10.49807983	      3.54150026	      1.03782723	      3.00778301	    -14.01125365	      1.87106248	     33.11407819	     45.32309406	      0.00000000	      0.00000000	     13.12470139	    -14.40110890	     -3.35520798	     46.68055997	     45.31000494	      0.00000000	      0.00000000
     36.55300000	     -4.01504554	     -4.48553382	     -2.64442608	      0.89009693	      0.93519163	      0.41360626	     32.19576341	     -5.06563800	     -6.63656633	     57.98089513	     57.98089513	      4.02364935	    -16.02068910	      3.30840620	     13.93992310	     -4.12057335	    -10.04256552	     18.98324254	     18.98324254	     11.70621291	     -6.52956946	     -3.42277191	    -10.55490812	      3.49367803	      1.10650817	      1.36344274	    -14.37596278	      1.86963174	     32.06340307	     45.36373328	      0.00000000	      0.00000000	     14.11555633	    -14.63867426	     -3.65522052	     47.49644566	     45.37531045	      0.00000000	      0.00000000
     36.56600000	     -4.09955662	     -4.47362745	     -2.93125636	      0.88942203	      0.93547087	      0.41346729	     32.61882675	     -4.86819620	     -6.57077823	     55.00190373	     55.00190373	      4.06585407	    -15.24159016	      3.06060281	     13.32302450	     -4.06358830	    -10.27063131	     18.55142439	     18.55142439	     11.93650769	     -6.46016274	     -3.48641164	    -10.54463826	      3.49218663	      0.95186456	     -0.18495668	    -14.68908842	      1.80327466	     31.21832269	     45.39719045	      0.00000000	      0.00000000	     14.94022404	    -14.97399848	     -3.97096426	     48.24979837	     45.43166496	      0.00000000	      0.00000000
     36.57900000	     -4.04571617	     -4.41511110	     -3.27280467	      0.88887753	      0.93588359	      0.41347602	     32.71155054	     -4.67652748	     -6.49619571	     51.73965353	     51.73965353	      3.91413205	    -14.33922751	      2.40552140	     12.48462940	     -3.95377790	    -10.58820615	     18.00279744	     18.00279744	     12.12744305	     -6.34421614	     -3.59115448	    -10.72622359	      3.37419957	      1.21073311	     -1.81715216	    -15.03208834	      1.59224968	     30.11032375	     45.45544481	      0.00000000	      0.00000000	     15.89933839	    -15.08930753	     -4.49415102	     49.48840407	     45.52056264	      0.00000000	      0.00000000
     36.59200000	     -4.15035267	     -4.42115554	     -3.53392700	      0.88827691	      0.93597915	      0.41351520	     32.81117620	     -4.42855763	     -6.59071880	     48.26093158	     48.26093158	      3.78271828	    -13.29811788	      2.12725665	     11.91292818	     -3.91827023	    -10.78127760	     17.58716802	     17.58716802	     12.32826229	     -6.28303125	     -3.70586077	    -10.68492181	      3.39268429	      1.08259817	     -3.25208291	    -15.28831588	      1.36457650	     29.26320153	     45.50216151	      0.00000000	      0.00000000	     16.61247966	    -15.38244784	     -4.94333065	     50.39657364	     45.59076895	      0.00000000	      0.00000000
     36.60500000	     -4.20200254	     -4.35527568	     -3.81133436	      0.88781019	      0.93604082	      0.41367689	     32.57211505	     -4.22999915	     -6.76184499	     44.25800974	     44.25800974	      2.29606980	    -12.68277239	     -1.99426699	     11.21415424	     -3.78979775	    -10.99575150	     17.02263314	     17.02263314	     12.28762303	     -6.32495996	     -4.31445747	    -10.73340938	      3.30072914	      0.94583090	     -4.11450270	    -14.96471335	     -2.09202624	     27.06604888	     45.94279592	      0.00000000	      0.00000000	     16.89857586	    -15.35554913	     -6.87953585	     52.38019868	     45.99344985	      0.00000000	      0.00000000
     36.61800000	     -4.35442661	     -4.36864653	     -4.02408691	      0.88715817	      0.93588129	      0.41399132	     32.47428488	     -3.90920847	     -7.00034394	     40.46281221	     40.46281221	      2.27146192	    -11.27147817	     -1.53367917	     10.76527142	     -3.77961136	    -11.15845352	     16.70158941	     16.70158941	     12.52571636	     -6.27669621	     -4.37849031	    -10.65535392	      3.33678434	      0.82966396	     -5.35774829	    -15.16792484	     -2.18972510	     26.56321373	     45.96367013	      0.00000000	      0.00000000	     17.60800863	    -15.67164671	     -7.09772083	     53.12290628	     46.03459108	      0.00000000	      0.00000000
     36.63100000	     -4.35743102	     -4.27905591	     -4.26388883	      0.88670891	      0.93584403	      0.41440052	     32.10844848	     -3.77030874	     -7.48714445	     36.57701865	     36.57701865	      2.25797113	     -9.10247865	     -1.25098300	     10.06577192	     -3.65778273	    -11.44617565	     16.24210950	     16.24210950	     12.74032818	     -6.01991804	     -4.53765279	    -10.77244327	      3.16399944	      1.11491104	     -6.85432956	    -15.37311984	     -2.66516546	     26.06053868	     46.01926048	      0.00000000	      0.00000000	     18.21443013	    -15.62101855	     -7.60753929	     54.87537355	     46.12671857	      0.00000000	      0.00000000
     36.64400000	     -4.49982281	     -4.31429392	     -4.45013646	      0.88621074	      0.93553081	      0.41504449	     31.74866233	     -3.38390066	     -7.97380170	     32.54309463	     32.54309463	      2.07316950	     -7.25087087	     -0.67232348	      9.62180524	     -3.69629947	    -11.57376214	     15.96763872	     15.96763872	     12.98367057	     -5.96273856	     -4.67542396	    -10.69434786	      3.19263848	      1.05661771	     -8.00193353	    -15.52898530	     -2.89889113	     25.67890609	     46.04767713	      0.00000000	      0.00000000	     18.71554010	    -15.81038767	     -7.91616130	     55.84423811	     46.17784195	      0.00000000	      0.00000000
     36.65700000	     -4.60619492	     -4.26060533	     -4.61840805	      0.88582761	      0.93515828	      0.41575335	     31.27667626	     -3.09716665	     -8.59002655	     28.53259214	     28.53259214	      1.85226050	     -5.03740113	     -0.02170496	      9.11932003	     -3.63978825	    -11.77038799	     15.65466024	     15.65466024	     13.21901460	     -5.81903147	     -4.85014144	    -10.63675891	      3.14774409	      1.15665886	     -9.16585351	    -15.61389957	     -3.16650227	     25.35335217	     46.07617603	      0.00000000	      0.00000000	     19.18828541	    -15.87264025	     -8.27266480	     57.08760763	     46.23582731	      0.00000000	      0.00000000
     36.67000000	     -4.67732894	     -4.17631843	     -4.77084950	      0.88556447	      0.93468422	      0.41662189	     30.72683634	     -2.82972012	     -9.33486276	     24.66627017	     24.66627017	      1.60203163	     -2.61196782	      0.77360248	      8.57250667	     -3.56070639	    -11.98051771	     15.34220537	     15.34220537	     13.46131958	     -5.60851585	     -5.07571326	    -10.64673896	      3.01710761	      1.27487237	    -10.27898286	    -15.65173217	     -3.49191943	     25.14920110	     46.10459114	      0.00000000	      0.00000000	     19.55419041	    -15.87716577	     -8.66539285	     58.51263140	     46.29867674	      0.00000000	      0.00000000
